<svg width="24" height="24" viewBox="0 0 24 24" fill="none" xmlns="http://www.w3.org/2000/svg">
<g clip-path="url(#clip0_17_33)">
<path d="M8.66643 4.69952C8.96162 5.69214 9.25681 6.68475 9.47731 7.52438C9.62207 8.0756 9.60056 8.7904 9.08227 9.04346C8.7763 9.19285 8.47032 9.34225 8.16435 9.49164C7.85838 9.64103 7.6271 9.94341 7.54881 10.1711C7.54522 10.5518 7.54163 10.9324 7.76572 11.3914C8.81147 13.5332 10.2415 15.2979 12.2087 16.6109C12.917 17.1526 13.5 17.5 14.4856 17.3938C15.0223 17.1317 15.0749 16.6232 15.4107 16.1843C15.7202 15.6542 16.1792 15.4301 16.7093 15.7397C17.4556 15.9963 19.2989 16.8847 19.8185 17.0634C20.7739 17.3919 20.7096 18.4318 20.3306 19.2763C19.7862 20.4894 18.8647 21.3183 17.5661 21.7629C16.8734 22 15.7676 21.781 15.2074 21.5883C13.916 21.2716 12.7812 20.4995 11.6463 19.7273C10.2838 18.8769 9.22731 17.8771 8.09608 16.7243C6.81546 15.2656 5.61313 13.5791 4.63848 11.971C4.03273 10.7303 3.49999 9 3.53959 7.39219C3.53959 7.39219 4.02491 4.60283 6.16192 3.83834C7.13668 3.3624 8.17646 3.69603 8.66643 4.69952Z" fill="#034EA2"/>
<path d="M19.1714 13.0218C19.8694 10.9921 19.782 8.83999 18.8482 6.92753C17.7784 5.19773 16.3668 4.03747 14.4655 3.3837C13.6315 3.09693 14.1857 1.75986 14.9353 2.0176C17.1086 2.7649 19.0543 4.24539 20.0721 6.32996C21.1392 8.51549 21.5 10.5 20.6158 13.2639C20.318 14.1949 18.8794 13.8711 19.1714 13.0218Z" fill="#034EA2"/>
<path d="M17.852 7.60343C18.7484 9.43927 18.5 11.5 18.1824 12.9364C17.8971 13.7661 16.7112 13.3057 16.8163 12.4667C17 11 17.5 9.5 16.3258 7.96973C15.1515 6.43946 14.2429 5.93738 13.1526 5.351C12.5 5.00003 13 3.89824 13.9247 4.21618C15.5863 4.78753 17.0816 6.02557 17.852 7.60343Z" fill="#034EA2"/>
<path d="M15.4789 8.95153C15.9271 9.86945 16.0693 10.9368 15.6779 12.0752C15.3272 13.0949 14 12.5 14.3118 11.6054C14.4684 11.1501 14.5143 10.364 14.3118 9.78126C14.1093 9.1985 13.5792 8.5529 12.6685 8.23974C11.5311 7.62645 12.2798 6.21829 13.4039 6.83819C14.2633 7.31213 15.0489 8.07074 15.4789 8.95153Z" fill="#034EA2"/>
</g>
<defs>
<clipPath id="clip0_17_33">
<rect width="24" height="24" fill="white"/>
</clipPath>
</defs>
</svg>
