<svg version="1.2" xmlns="http://www.w3.org/2000/svg" viewBox="0 0 13 16" width="13" height="16"><style>.a{fill:#bbbdbf}</style><path class="a" d="m5.5 0.5c0.3 0.3 0.4 0.6 0.3 1q-0.1 1.1-0.3 2.2 0 0.2-0.1 0.4-0.2 0.5-0.7 0.5-0.4 0-0.8-0.1-0.3 0-0.5 0.3-0.3 0.4-0.3 0.8c0 1.8 0.4 3.4 1.3 5q0.2 0.4 0.6 0.8 0.2 0.3 0.5 0.4 0.3 0 0.5-0.1 0.3-0.2 0.6-0.4c0.3-0.3 0.7-0.2 1 0.1q0.3 0.3 0.5 0.6 0.5 0.5 1 1 0.1 0.2 0.2 0.3c0.2 0.3 0.3 0.6 0.2 1q0 0.1-0.1 0.2-0.2 0.3-0.5 0.5-1.2 1-2.7 0.7-0.3-0.1-0.6-0.2-0.2-0.1-0.4-0.2-0.2-0.2-0.5-0.4c-0.7-0.6-1.3-1.5-1.7-2.3-0.6-1.1-1-2.2-1.3-3.3-0.5-1.4-0.8-2.8-0.8-4.3-0.1-0.8 0-1.6 0.2-2.4q0.1-0.3 0.2-0.7 0.1-0.2 0.3-0.4 0 0 0-0.1c0.7-1 1.7-1.4 2.9-1.2 0.3 0 0.5 0.1 0.8 0.1q0.1 0.1 0.2 0.2z"/><path class="a" d="m10.5 11.4q0 0-0.1 0c-0.3-0.2-0.5-0.6-0.2-0.9q0.2-0.3 0.5-0.6 0.8-1 1-2.3 0.2-0.7 0.1-1.4-0.1-1.8-1.3-3.3-0.1-0.2-0.3-0.4c-0.3-0.3-0.2-0.7 0.2-0.8q0.1-0.1 0.1-0.1 0.1 0 0.2 0 0 0 0 0 0.2 0.1 0.3 0.2 0.8 0.8 1.3 1.9 0.5 1.1 0.6 2.4 0 0.1 0 0.2 0 0.2 0 0.4 0 0 0 0.1 0 0.6-0.1 1.2-0.5 1.8-1.8 3.2-0.1 0.1-0.3 0.2 0 0 0 0-0.1 0-0.2 0z"/><path class="a" d="m11 6.4c0 1.5-0.5 2.6-1.5 3.6q-0.2 0.3-0.5 0.2-0.3-0.1-0.4-0.4 0-0.3 0.2-0.5 0.2-0.3 0.4-0.6 0.5-0.7 0.7-1.5 0-0.6 0-1.1-0.1-1.3-1.1-2.3-0.1-0.2-0.2-0.3c0-0.3 0.1-0.5 0.3-0.6 0.2-0.2 0.4-0.1 0.6 0q0.4 0.5 0.8 1 0.5 0.8 0.6 1.9c0.1 0.2 0.1 0.5 0.1 0.6z"/><path class="a" d="m9 6.6c0 0.7-0.3 1.5-0.9 2.1-0.2 0.2-0.5 0.2-0.7 0-0.3-0.2-0.3-0.6-0.1-0.8q0.5-0.4 0.6-1 0.2-1-0.5-1.7-0.1-0.2-0.2-0.4c0-0.2 0.1-0.4 0.3-0.6 0.2-0.1 0.4 0 0.6 0.1q0.3 0.3 0.6 0.8c0.2 0.4 0.3 0.9 0.3 1.5z"/></svg>