<svg version="1.2" xmlns="http://www.w3.org/2000/svg" viewBox="0 0 14 16" width="14" height="16"><style>.a{fill:#bbbdbf}</style><path class="a" d="m5.5 0.3c0.3 0.2 0.3 0.6 0.3 1q-0.2 1.1-0.3 2.2 0 0.2-0.1 0.3-0.2 0.5-0.7 0.5-0.4 0-0.8 0-0.3 0-0.5 0.3-0.3 0.4-0.3 0.8c0 1.8 0.4 3.4 1.2 4.9q0.3 0.5 0.7 0.9 0.2 0.3 0.5 0.4 0.3 0 0.5-0.1 0.3-0.2 0.6-0.4c0.3-0.3 0.7-0.3 1 0.1q0.3 0.2 0.5 0.5 0.5 0.6 1 1.1 0.1 0.2 0.2 0.3c0.2 0.3 0.3 0.6 0.2 0.9q0 0.2-0.1 0.3-0.2 0.2-0.5 0.5-1.2 1-2.7 0.7-0.3-0.1-0.6-0.2-0.2-0.1-0.4-0.3-0.3-0.1-0.5-0.3c-0.7-0.7-1.3-1.5-1.8-2.4-0.5-1-0.9-2.1-1.3-3.3-0.4-1.3-0.7-2.8-0.8-4.2 0-0.8 0-1.6 0.3-2.4q0.1-0.3 0.2-0.7 0.1-0.2 0.2-0.4 0.1 0 0.1-0.1c0.7-1 1.7-1.4 2.9-1.3 0.3 0.1 0.5 0.2 0.8 0.2q0.1 0.1 0.2 0.2z"/><path class="a" d="m10.7 5.4l2.6 1.5c0.3 0.2 0.3 0.5 0 0.7l-2.6 1.5c-0.4 0.2-0.7 0.1-0.7-0.3v-0.5h-2.7c-0.6 0-1.1-0.5-1.1-1 0-0.6 0.5-1.1 1.1-1.1h2.7v-0.5c0-0.4 0.3-0.5 0.7-0.3z"/></svg>