<svg version="1.2" baseProfile="tiny-ps" xmlns="http://www.w3.org/2000/svg" viewBox="0 0 29 30" width="29" height="30">
	<title>Layer 1</title>
	<style>
		tspan { white-space:pre }
		.shp0 { fill: #bbbdbf } 
		.shp1 { fill: #034ea2 } 
	</style>
	<g id="Layer 1">
		<g id="&lt;Group&gt;">
			<g id="&lt;Group&gt;">
				<g id="&lt;Group&gt;">
					<g id="&lt;Group&gt;">
						<path id="&lt;Path&gt;" class="shp0" d="M29.1 14.99C29.1 23.06 22.56 29.6 14.49 29.6C6.42 29.6 -0.13 23.06 -0.13 14.99C-0.13 6.91 6.42 0.37 14.49 0.37C22.56 0.37 29.1 6.91 29.1 14.99Z" />
					</g>
				</g>
				<g id="&lt;Group&gt;">
					<path id="&lt;Path&gt;" class="shp1" d="M13.93 8.54C14.24 8.81 14.27 9.17 14.22 9.55C14.12 10.29 14.01 11.04 13.9 11.79C13.89 11.9 13.85 12.01 13.81 12.12C13.7 12.45 13.46 12.62 13.1 12.61C12.85 12.61 12.61 12.6 12.36 12.59C12.12 12.57 11.95 12.68 11.82 12.86C11.65 13.11 11.55 13.39 11.54 13.7C11.49 15.46 11.93 17.09 12.77 18.62C12.94 18.93 13.16 19.22 13.38 19.5C13.53 19.68 13.74 19.78 13.96 19.84C14.12 19.88 14.27 19.86 14.41 19.76C14.6 19.63 14.79 19.5 14.98 19.37C15.36 19.1 15.69 19.12 16.03 19.44C16.21 19.62 16.38 19.82 16.54 20.01C16.86 20.38 17.17 20.74 17.48 21.11C17.56 21.2 17.64 21.3 17.71 21.4C17.91 21.67 18.04 21.97 17.94 22.32C17.9 22.4 17.85 22.48 17.81 22.57C17.65 22.73 17.5 22.91 17.32 23.06C16.54 23.73 15.64 23.98 14.63 23.76C14.43 23.71 14.24 23.63 14.04 23.57C13.9 23.49 13.76 23.41 13.61 23.33C13.46 23.21 13.29 23.09 13.14 22.96C12.38 22.32 11.83 21.5 11.37 20.62C10.81 19.57 10.41 18.46 10.07 17.33C9.66 15.94 9.34 14.53 9.27 13.07C9.23 12.26 9.27 11.46 9.5 10.68C9.57 10.45 9.66 10.23 9.73 10C9.81 9.86 9.89 9.72 9.97 9.58C9.99 9.55 10.02 9.52 10.04 9.49C10.75 8.5 11.72 8.11 12.92 8.23C13.18 8.25 13.43 8.34 13.68 8.4C13.77 8.45 13.85 8.49 13.93 8.54Z" />
					<path id="&lt;Path&gt;" class="shp1" d="M18.95 19.45C18.91 19.44 18.88 19.43 18.85 19.42C18.47 19.3 18.34 18.83 18.6 18.54C18.76 18.35 18.93 18.18 19.08 17.99C19.62 17.31 19.97 16.54 20.14 15.69C20.24 15.23 20.28 14.75 20.25 14.28C20.18 13.03 19.75 11.93 18.96 10.97C18.84 10.83 18.72 10.71 18.6 10.57C18.35 10.3 18.45 9.86 18.79 9.72C18.84 9.69 18.9 9.68 18.95 9.67C18.99 9.67 19.03 9.67 19.07 9.67C19.08 9.67 19.09 9.68 19.1 9.68C19.21 9.7 19.31 9.75 19.39 9.83C19.95 10.39 20.41 11.04 20.74 11.76C21.08 12.51 21.28 13.3 21.33 14.12C21.34 14.19 21.35 14.27 21.35 14.34C21.35 14.49 21.35 14.63 21.35 14.77C21.35 14.79 21.34 14.81 21.34 14.83C21.33 15.23 21.28 15.63 21.19 16.02C20.9 17.27 20.31 18.35 19.41 19.27C19.32 19.36 19.22 19.42 19.09 19.44C19.08 19.44 19.08 19.44 19.07 19.45C19.03 19.45 18.99 19.45 18.95 19.45Z" />
					<path id="&lt;Path&gt;" class="shp1" d="M19.42 14.47C19.39 15.93 18.92 17.11 17.96 18.09C17.81 18.25 17.62 18.3 17.41 18.24C17.21 18.18 17.08 18.04 17.03 17.83C16.99 17.64 17.04 17.47 17.18 17.33C17.36 17.15 17.51 16.96 17.65 16.76C17.97 16.29 18.17 15.77 18.27 15.21C18.33 14.87 18.34 14.53 18.3 14.18C18.21 13.28 17.85 12.49 17.23 11.83C17.14 11.74 17.06 11.65 17.03 11.52C16.98 11.29 17.08 11.05 17.29 10.93C17.49 10.81 17.76 10.83 17.93 11C18.21 11.27 18.46 11.59 18.67 11.93C19.03 12.51 19.26 13.15 19.36 13.83C19.39 14.07 19.4 14.31 19.42 14.47Z" />
					<path id="&lt;Path&gt;" class="shp1" d="M17.44 14.63C17.43 15.39 17.13 16.12 16.55 16.72C16.33 16.93 15.99 16.94 15.78 16.73C15.56 16.52 15.55 16.18 15.76 15.97C16.03 15.68 16.23 15.36 16.3 14.97C16.43 14.31 16.27 13.72 15.82 13.21C15.74 13.12 15.65 13.03 15.63 12.9C15.57 12.67 15.67 12.43 15.88 12.31C16.08 12.19 16.35 12.21 16.52 12.37C16.75 12.59 16.93 12.84 17.08 13.12C17.32 13.57 17.43 14.05 17.44 14.63Z" />
				</g>
			</g>
		</g>
	</g>
</svg>