<svg version="1.2" xmlns="http://www.w3.org/2000/svg" viewBox="0 0 29 30" width="29" height="30"><style>.a{fill:#bbbdbf}.b{fill:#034ea2}</style><path class="a" d="m29.1 15c0 8.1-6.5 14.6-14.6 14.6-8.1 0-14.6-6.5-14.6-14.6 0-8.1 6.5-14.6 14.6-14.6 8.1 0 14.6 6.5 14.6 14.6z"/><path class="b" d="m6.9 9.7l0.1 0.2q0.1 0 0.1 0.1l0.2 0.3q0 0 0 0l0.2 0.6q0 0 0 0l0.2 0.9 0.1 0.8q0 0 0 0v0.6q0 0 0 0.1v0.2q-0.1 0.1-0.1 0.2-0.1 0.1-0.2 0.1h-0.4q0 0 0 0l-0.6 0.1q-0.1 0-0.2 0.1l-0.2 0.2q-0.1 0.1-0.1 0.2l-0.2 0.6q0 0.1 0 0.1l0.1 1.1q0 0 0 0l0.1 1.4q0 0 0 0.1l0.4 1.3q0 0 0 0l0.3 0.9q0 0.1 0.1 0.1l0.3 0.4q0.1 0.1 0.2 0.1l0.3 0.1q0 0 0.1 0l0.6-0.2q0 0 0 0h0.1q0.1 0 0.2 0.1l0.1 0.1q0.1 0 0.1 0.1l0.2 0.4q0.1 0 0.1 0.1l0.2 0.7q0 0 0 0l0.2 0.8q0 0 0 0.1l0.1 0.6q0 0 0 0v0.3q0 0.1-0.1 0.2l-0.1 0.1q0 0.1-0.2 0.1l-0.7 0.1q0 0-0.1 0l-0.9-0.1c-0.1 0-0.3 0-0.5-0.1l-0.2-0.1q-0.1 0-0.2-0.1c-0.1-0.1-0.1-0.1-0.3-0.2q0 0 0-0.1l-0.4-0.4c0-0.1-0.1-0.2-0.1-0.2l-0.6-1.3q0 0 0 0l-0.6-1.8q0 0 0 0l-0.5-1.9q0 0 0 0l-0.2-1.8q0 0 0 0v-1.5q0 0 0-0.1l0.1-1.3q0 0 0.1 0l0.3-1.1q0-0.1 0-0.1l0.3-0.8q0-0.1 0-0.1l0.4-0.6q0 0 0 0l0.4-0.3q0-0.1 0.1-0.1l0.7-0.3q0 0 0.1 0z"/><path class="b" d="m7.9 9.5l0.2 0.1q0 0 0.1 0l0.1 0.2q0.1 0.1 0.1 0.1l0.1 0.4 0.2 0.6 0.1 0.6q0 0 0 0l0.1 0.6v0.6 0.5q0 0 0 0.1l-0.1 0.3q0 0.1-0.1 0.1l-0.2 0.1q0 0-0.1 0h-0.2q-0.1 0-0.1-0.1 0-0.1 0-0.1v-0.2q0 0 0 0v-0.4-0.5q0 0 0 0l-0.1-0.4-0.1-0.5q0 0 0 0v-0.4q0 0 0 0l-0.2-0.4q0 0 0 0l-0.1-0.4q0 0 0 0l-0.1-0.3q0 0 0 0l-0.1-0.2q-0.1-0.1-0.1-0.1v-0.1q0-0.1 0.1-0.1 0-0.1 0-0.1h0.2q0.1 0 0.1 0z"/><path class="b" d="m10.5 23.9q0 0 0 0l-0.3 0.1q0 0-0.1 0h-0.1q-0.2 0-0.2-0.1 0 0 0-0.1l0.1-0.2q0 0 0-0.1v-0.3l-0.1-0.3q0 0 0 0l-0.1-0.5q0 0 0 0l-0.1-0.4-0.1-0.3-0.1-0.4q0 0 0-0.1l-0.2-0.3q0 0 0 0l-0.2-0.3-0.1-0.3q0 0 0 0v-0.1q-0.1-0.1 0-0.1l0.2-0.1q0-0.1 0-0.1h0.3q0.1 0 0.1 0l0.3 0.2q0 0 0 0.1l0.4 0.4q0 0 0 0l0.2 0.6q0 0 0 0l0.2 0.5q0 0 0 0l0.1 0.6 0.1 0.4q0 0 0 0l0.1 0.4q0 0 0 0.1l-0.1 0.2q0 0 0 0l-0.1 0.3z"/><path class="b" d="m24.7 18q-0.5 1.6-1.6 2.9-0.6 0.7-1.2 1.2-0.7 0.5-1.4 0.9-0.7 0.4-1.5 0.6-0.8 0.2-1.6 0.3-1.8 0.2-3.4-0.3-1.6-0.5-2.9-1.6h0.1q0.1 0 0.1 0l0.4-0.1q1.1 0.8 2.4 1.2c4.3 1.4 8.8-1 10.2-5.3 1.3-4.2-1.1-8.8-5.3-10.1-3.8-1.2-7.9 0.6-9.6 4l-0.1-0.2q0 0-0.1 0l-0.1-0.3q0.4-0.7 0.9-1.3 0.6-0.6 1.2-1.2 0.7-0.5 1.4-0.9 0.7-0.3 1.5-0.6 0.8-0.2 1.6-0.3 1.8-0.2 3.4 0.4 1.7 0.5 3 1.6 0.6 0.5 1.1 1.2 0.5 0.6 0.9 1.4 0.4 0.7 0.6 1.5 0.3 0.8 0.4 1.6 0.1 1.7-0.4 3.4z"/><path class="b" d="m11.8 18.3v-0.9l0.9-0.8c1.5-1.3 2.2-2.1 2.2-2.9 0-0.5-0.3-0.9-1.1-0.9-0.6 0-1.1 0.2-1.5 0.5l-0.4-1.1c0.5-0.4 1.3-0.7 2.2-0.7 1.5 0 2.4 0.9 2.4 2.1 0 1.1-0.9 2-1.8 2.9l-0.6 0.5h2.5v1.3z"/><path fill-rule="evenodd" class="b" d="m20.3 18.3v-1.6h-2.9v-1l2.5-4.1h1.9v3.9h0.8v1.2h-0.8v1.6zm0-2.8v-1.4q0-0.6 0.1-1.3h-0.1c-0.2 0.4-0.4 0.8-0.6 1.3l-0.9 1.4z"/><path class="b" d="m14.2 8.7l0.8-1.3 0.1-0.2-0.1-0.2-0.8-1.2h0.1l2.3 0.9q1.2 0.3 2.4 0.6-1.2 0.3-2.4 0.5z"/><path class="b" d="m21.5 20.6v0.1l-0.1 1.3-0.1 0.2 0.2 0.1 1.1 0.8-2.3 0.1q-1.2 0.3-2.3 0.5 0.9-0.7 1.9-1.4z"/></svg>