<svg version="1.2" xmlns="http://www.w3.org/2000/svg" viewBox="0 0 33 32" width="33" height="32"><style>.a{fill:#bbbdbf}.b{fill:#034ea2}</style><path fill-rule="evenodd" class="a" d="m0 30.7c0.2-0.3 0.5-0.4 0.8-0.4 0.5 0.1 0.9 0 1.4 0q0-0.2 0-0.4 0-7.7 0-15.3c0-0.7 0.1-0.8 0.8-0.8q0.4 0 0.9 0 0-0.8 0-1.5c0-0.6 0.1-0.7 0.7-0.7q5.5 0 10.9 0 0.2 0 0.5 0 0-0.7 0-1.4c0-0.7 0.2-0.9 0.9-0.9q2.6 0 5.3 0 0.2 0 0.4 0 0-0.2 0-0.4 0-3.8 0-7.6c0-0.7 0.3-0.9 1-0.7q1.5 0.5 2.9 1c0.5 0.1 0.6 0.3 0.6 0.7q0 5.5 0 11 0 0.2 0 0.5 0.3 0 0.5 0 1.3 0 2.6 0c0.6 0 0.7 0.1 0.7 0.7q0 7.7 0 15.4 0 0.2 0 0.4 0.8 0 1.5 0c0.5 0 0.7 0.3 0.7 0.6 0 0.3-0.2 0.5-0.7 0.5q-15.8 0-31.7 0-0.5 0.1-0.7-0.3 0-0.2 0-0.4zm29.8-15.8q-13.3 0-26.5 0 0 0.1 0 0.2 0 7.2 0 14.4c0 0.3 0.1 0.3 0.4 0.3q12.9 0 25.7 0c0.4 0 0.4-0.1 0.4-0.4q0-7.1 0-14.2 0-0.1 0-0.3zm-3.9-1.1q0-0.3 0-0.5 0-2.7 0-5.4 0.1-2.5 0-5c0-0.1 0-0.3 0-0.4-0.5-0.1-1.1-0.3-1.6-0.5 0 0.2 0 0.3 0 0.5q0 5.4 0 10.8c0 0.1-0.1 0.2 0 0.2 0 0.1 0.1 0.2 0.2 0.3 0.4 0 0.9 0 1.4 0zm-8.7-3.3q0 1.6 0 3.2 0 0.1 0.1 0.1 2.5-0.1 5.1-0.1c0.2 0 0.2-0.1 0.2-0.2q0-1.4 0-2.7c0-0.3 0-0.3-0.3-0.3q-1.8 0-3.5 0-0.8 0-1.6 0zm-12.2 3.2q0.2 0 0.3 0.1 5 0 9.9 0 0.3 0 0.5-0.1c0.1 0 0.3-0.1 0.3-0.1q0-0.5 0-0.9c-3.7 0-7.4 0-11 0 0 0.4 0 0.7 0 1z"/><path class="b" d="m29.8 14.9q0 0.2 0 0.3 0 7.1 0 14.2c0 0.3 0 0.4-0.4 0.4q-12.8 0-25.7 0c-0.3 0-0.4 0-0.4-0.3q0-7.2 0-14.4 0-0.1 0-0.2 13.2 0 26.5 0z"/><path class="b" d="m25.9 13.8c-0.5 0-1 0-1.4 0-0.1-0.1-0.2-0.2-0.2-0.3-0.1 0 0-0.1 0-0.2q0-5.4 0-10.8c0-0.2 0-0.3 0-0.5 0.5 0.2 1.1 0.4 1.6 0.5 0 0.1 0 0.3 0 0.4q0.1 2.5 0 5 0 2.7 0 5.4 0 0.2 0 0.5z"/><path class="b" d="m17.2 10.5q0.8 0 1.6 0 1.7 0 3.5 0c0.3 0 0.3 0 0.3 0.3q0 1.3 0 2.7c0 0.1 0 0.2-0.2 0.2q-2.6 0-5.1 0.1-0.1 0-0.1-0.1 0-1.6 0-3.2z"/><path class="b" d="m5 13.7c0-0.3 0-0.6 0-1 3.6 0 7.3 0 11 0q0 0.4 0 0.9c0 0-0.2 0.1-0.3 0.1q-0.2 0.1-0.5 0.1-4.9 0-9.9 0-0.1-0.1-0.3-0.1z"/><path fill-rule="evenodd" class="a" d="m10.5 27.5h-4.4c0 0 0-3.2 0-4.2 0-0.5 0.1-0.7 0.7-0.7q1.5 0 3 0c0.5 0 0.7 0.2 0.7 0.7zm-3.3-3.8q0 1.1 0 2.2 1.1 0 2.1 0 0-1.1 0-2.2-1 0-2.1 0z"/><path fill-rule="evenodd" class="a" d="m16 27.5h-4.4c0 0 0-3.2 0-4.2 0-0.5 0.2-0.7 0.7-0.7q1.5 0 3 0c0.5 0 0.7 0.2 0.7 0.7zm-3.3-3.8q0 1.1 0 2.2 1.1 0 2.2 0 0-1.1 0-2.2-1.1 0-2.2 0z"/><path fill-rule="evenodd" class="a" d="m21.5 27.5h-4.4c0 0 0-3.2 0-4.2 0-0.5 0.2-0.7 0.7-0.7q1.5 0 3 0c0.5 0 0.7 0.2 0.7 0.7zm-3.3-3.8q0 1.1 0 2.2 1.1 0 2.2 0 0-1.1 0-2.2-1.1 0-2.2 0z"/><path fill-rule="evenodd" class="a" d="m27.1 27.5h-4.4c0 0 0-3.2 0-4.2 0-0.5 0.1-0.7 0.7-0.7q1.5 0 3 0c0.5 0 0.7 0.2 0.7 0.7zm-3.3-3.8q0 1.1 0 2.2 1.1 0 2.1 0 0-1.1 0-2.2-1 0-2.1 0z"/><path fill-rule="evenodd" class="a" d="m10.5 22h-4.4c0 0 0-3.2 0-4.2 0-0.5 0.1-0.7 0.7-0.7q1.5 0 3 0c0.5 0 0.7 0.2 0.7 0.7zm-3.3-3.8q0 1.1 0 2.2 1.1 0 2.1 0 0-1.1 0-2.2-1 0-2.1 0z"/><path fill-rule="evenodd" class="a" d="m16 22h-4.4c0 0 0-3.2 0-4.2 0-0.5 0.2-0.7 0.7-0.7q1.5 0 3 0c0.5 0 0.7 0.2 0.7 0.7zm-3.3-3.8q0 1.1 0 2.2 1.1 0 2.2 0 0-1.1 0-2.2-1.1 0-2.2 0z"/><path fill-rule="evenodd" class="a" d="m21.5 22h-4.4c0 0 0-3.2 0-4.2 0-0.5 0.2-0.7 0.7-0.7q1.5 0 3 0c0.5 0 0.7 0.2 0.7 0.7zm-3.3-3.8q0 1.1 0 2.2 1.1 0 2.2 0 0-1.1 0-2.2-1.1 0-2.2 0z"/><path fill-rule="evenodd" class="a" d="m27.1 22h-4.4c0 0 0-3.2 0-4.2 0-0.5 0.1-0.7 0.7-0.7q1.5 0 3 0c0.5 0 0.7 0.2 0.7 0.7zm-3.3-3.8q0 1.1 0 2.2 1.1 0 2.1 0 0-1.1 0-2.2-1 0-2.1 0z"/><path class="b" d="m9.3 25.9h-2.1v-2.2h2.1z"/><path class="b" d="m14.9 25.9h-2.2v-2.2h2.2z"/><path class="b" d="m20.4 25.9h-2.2v-2.2h2.2z"/><path class="b" d="m25.9 25.9h-2.1v-2.2h2.1z"/><path class="b" d="m9.3 20.4h-2.1v-2.2h2.1z"/><path class="b" d="m14.9 20.4h-2.2v-2.2h2.2z"/><path class="b" d="m20.4 20.4h-2.2v-2.2h2.2z"/><path class="b" d="m25.9 20.4h-2.1v-2.2h2.1z"/></svg>